<svg width="12" height="16" viewBox="0 0 12 16" fill="none" xmlns="http://www.w3.org/2000/svg">
<path d="M6 0C9.31376 0 12 2.32004 12 6.29724C12 7.87619 11.0545 9.82038 9.91412 11.5916L9.72247 11.8849C9.65777 11.9821 9.59294 12.0787 9.528 12.1746L9.33106 12.4599L9.23224 12.6008L9.03424 12.8788L8.83553 13.1506L8.63788 13.4168L8.44165 13.6759L8.24753 13.9278L8.05624 14.1714L7.86882 14.4068L7.68565 14.6328L7.42129 14.9543L7.17141 15.2519L6.93847 15.5244L6.86541 15.6092C6.38753 16.1408 5.58529 16.1196 5.13494 15.6092L4.90835 15.346L4.66412 15.0564L4.49224 14.8499L4.31471 14.6331L4.03835 14.2904L3.84882 14.0508L3.65612 13.8032L3.46094 13.5477L3.26365 13.2852L3.06529 13.0161L2.86694 12.741C2.80106 12.6482 2.73518 12.5546 2.66929 12.4602L2.47235 12.1752L2.27788 11.8852L2.08624 11.5919C0.945529 9.82038 0 7.87619 0 6.29724C0 2.32004 2.68624 0 6 0ZM6 1.32573C3.30988 1.32573 1.41176 3.20894 1.41176 6.29724C1.41176 7.40589 2.028 8.8864 3.03882 10.522L3.21635 10.8037L3.40094 11.0884L3.59294 11.3758L3.69141 11.5203L3.89365 11.8106L4.10259 12.1033L4.31788 12.3976L4.53918 12.6932L4.76647 12.9902L4.88224 13.1394L5.118 13.4376L5.33153 13.7025L5.44165 13.8367C5.50761 13.9167 5.59222 13.9815 5.68897 14.0261C5.78572 14.0706 5.89206 14.0938 5.99982 14.0938C6.10759 14.0938 6.21392 14.0706 6.31068 14.0261C6.40743 13.9815 6.49203 13.9167 6.558 13.8367L6.75847 13.5914L6.99706 13.2918L7.23035 12.9935L7.458 12.6962L7.68 12.3999L7.89529 12.1053C7.96635 12.0074 8.03612 11.9097 8.10459 11.8123L8.30718 11.5216C8.47329 11.2799 8.63188 11.0408 8.78294 10.8044L8.96012 10.5227C9.97235 8.88574 10.5882 7.40522 10.5882 6.29724C10.5882 3.20894 8.69012 1.32573 6 1.32573ZM6 2.9829C6.74885 2.9829 7.46702 3.26225 7.99654 3.7595C8.52605 4.25675 8.82353 4.93116 8.82353 5.63437C8.82353 6.33759 8.52605 7.012 7.99654 7.50924C7.46702 8.00649 6.74885 8.28584 6 8.28584C5.25115 8.28584 4.53298 8.00649 4.00346 7.50924C3.47395 7.012 3.17647 6.33759 3.17647 5.63437C3.17647 4.93116 3.47395 4.25675 4.00346 3.7595C4.53298 3.26225 5.25115 2.9829 6 2.9829ZM6 4.30864C5.62558 4.30864 5.26649 4.44831 5.00173 4.69694C4.73697 4.94556 4.58824 5.28277 4.58824 5.63437C4.58824 5.98598 4.73697 6.32318 5.00173 6.57181C5.26649 6.82043 5.62558 6.96011 6 6.96011C6.37442 6.96011 6.73351 6.82043 6.99827 6.57181C7.26303 6.32318 7.41177 5.98598 7.41177 5.63437C7.41177 5.28277 7.26303 4.94556 6.99827 4.69694C6.73351 4.44831 6.37442 4.30864 6 4.30864Z" fill="#1C3144"/>
</svg>
